<svg width="64" height="64" viewBox="0 0 64 64" fill="none" xmlns="http://www.w3.org/2000/svg">
<circle cx="32" cy="32" r="32" fill="#F4813F"/>
<path d="M29.0781 36.9766V49H22.0469V14.875H35.3594C37.9219 14.875 40.1719 15.3438 42.1094 16.2812C44.0625 17.2188 45.5625 18.5547 46.6094 20.2891C47.6562 22.0078 48.1797 23.9688 48.1797 26.1719C48.1797 29.5156 47.0312 32.1562 44.7344 34.0938C42.4531 36.0156 39.2891 36.9766 35.2422 36.9766H29.0781ZM29.0781 31.2812H35.3594C37.2188 31.2812 38.6328 30.8438 39.6016 29.9688C40.5859 29.0938 41.0781 27.8438 41.0781 26.2188C41.0781 24.5469 40.5859 23.1953 39.6016 22.1641C38.6172 21.1328 37.2578 20.6016 35.5234 20.5703H29.0781V31.2812Z" fill="white"/>
</svg>
